<svg width="23" height="23" viewBox="0 0 23 23" fill="none" xmlns="http://www.w3.org/2000/svg">
<path d="M10.6932 17H6.14773L8.07955 5.36364H12.4432C13.6402 5.36364 14.6402 5.60417 15.4432 6.08523C16.2462 6.56629 16.8163 7.25379 17.1534 8.14773C17.4905 9.04167 17.5568 10.1061 17.3523 11.3409C17.1553 12.5303 16.7557 13.5473 16.1534 14.392C15.5549 15.2367 14.7898 15.8826 13.858 16.3295C12.9299 16.7765 11.875 17 10.6932 17ZM9.75 14.3182H10.8977C11.4735 14.3182 11.9867 14.2178 12.4375 14.017C12.892 13.8125 13.2708 13.4716 13.5739 12.9943C13.8807 12.5133 14.1023 11.8561 14.2386 11.0227C14.3674 10.2348 14.3636 9.62689 14.2273 9.19886C14.0909 8.76705 13.8314 8.4678 13.4489 8.30114C13.0663 8.13068 12.572 8.04545 11.9659 8.04545H10.7955L9.75 14.3182ZM9.70455 22.1136C8.48106 22.1136 7.34659 21.9261 6.30114 21.5511C5.25568 21.1761 4.32765 20.6477 3.51705 19.9659C2.70644 19.2841 2.03788 18.4792 1.51136 17.5511C0.984848 16.6231 0.626894 15.6042 0.4375 14.4943C0.248106 13.3807 0.253788 12.2083 0.454545 10.9773C0.651515 9.79167 1.01894 8.66288 1.55682 7.59091C2.09848 6.51894 2.77273 5.53598 3.57955 4.64205C4.38636 3.74811 5.29167 2.97348 6.29545 2.31818C7.30303 1.65909 8.375 1.14962 9.51136 0.789772C10.6477 0.429924 11.8106 0.25 13 0.25C14.2235 0.25 15.358 0.4375 16.4034 0.8125C17.4527 1.1875 18.3826 1.71591 19.1932 2.39773C20.0076 3.07955 20.6761 3.88447 21.1989 4.8125C21.7254 5.74053 22.0833 6.76136 22.2727 7.875C22.4621 8.98485 22.4545 10.1553 22.25 11.3864C22.053 12.572 21.6856 13.7008 21.1477 14.7727C20.6098 15.8447 19.9375 16.8277 19.1307 17.7216C18.3239 18.6155 17.4167 19.3902 16.4091 20.0455C15.4053 20.7045 14.3352 21.214 13.1989 21.5739C12.0625 21.9337 10.8977 22.1136 9.70455 22.1136ZM9.70455 20.2955C10.7197 20.2955 11.7121 20.1402 12.6818 19.8295C13.6553 19.5189 14.5739 19.0795 15.4375 18.5114C16.3011 17.947 17.0795 17.2822 17.7727 16.517C18.4697 15.7481 19.0492 14.9053 19.5114 13.9886C19.9735 13.0682 20.2879 12.1023 20.4545 11.0909C20.6212 10.0833 20.6307 9.12689 20.483 8.22159C20.339 7.31629 20.0568 6.48864 19.6364 5.73864C19.2159 4.98864 18.678 4.33901 18.0227 3.78977C17.3712 3.24053 16.6212 2.81629 15.7727 2.51705C14.9242 2.2178 14 2.06818 13 2.06818C11.9886 2.06818 10.9962 2.22348 10.0227 2.53409C9.05303 2.8447 8.13636 3.28409 7.27273 3.85227C6.40909 4.41667 5.63068 5.08333 4.9375 5.85227C4.24432 6.61742 3.66477 7.46023 3.19886 8.38068C2.73295 9.29735 2.41667 10.2614 2.25 11.2727C2.08333 12.2803 2.07386 13.2367 2.22159 14.142C2.37311 15.0473 2.65909 15.875 3.07955 16.625C3.5 17.375 4.03598 18.0246 4.6875 18.5739C5.33902 19.1231 6.08902 19.5473 6.9375 19.8466C7.78599 20.1458 8.70833 20.2955 9.70455 20.2955Z" fill="url(#paint0_linear_1_15)" style="mix-blend-mode:darken"/>
<defs>
<linearGradient id="paint0_linear_1_15" x1="14" y1="2" x2="14" y2="21" gradientUnits="userSpaceOnUse">
<stop stop-color="#1246E2" stop-opacity="0.9"/>
<stop offset="0.557292" stop-color="#034B81" stop-opacity="0.557292"/>
<stop offset="1" stop-color="#8C59D9" stop-opacity="0.463542"/>
</linearGradient>
</defs>
</svg>
