<svg width="77" height="23" viewBox="0 0 77 23" fill="none" xmlns="http://www.w3.org/2000/svg">
<g filter="url(#filter0_b_1_5)">
<path d="M26.0888 17.2741C25.3397 17.2741 24.7199 17.1134 24.2294 16.7919C23.7422 16.4671 23.4008 16.0113 23.2053 15.4247C23.0097 14.8347 22.9782 14.1437 23.1108 13.3515C23.2401 12.5693 23.5002 11.8799 23.8913 11.2833C24.2824 10.6868 24.7696 10.2211 25.353 9.88633C25.9396 9.55158 26.5876 9.3842 27.2969 9.3842C27.7277 9.3842 28.1338 9.45546 28.5149 9.59798C28.8994 9.7405 29.2259 9.96422 29.4943 10.2691C29.7628 10.5741 29.9484 10.9701 30.0511 11.4574C30.1572 11.9413 30.1539 12.5296 30.0412 13.2223L29.9567 13.7493H23.8814L24.0554 12.6356H28.669C28.7386 12.2445 28.7204 11.8982 28.6143 11.5966C28.5083 11.2916 28.326 11.0513 28.0675 10.8757C27.8123 10.7 27.4908 10.6122 27.103 10.6122C26.7053 10.6122 26.334 10.7166 25.9893 10.9254C25.6446 11.1342 25.3563 11.401 25.1243 11.7258C24.8956 12.0473 24.7514 12.3788 24.6918 12.7201L24.5178 13.7393C24.4316 14.2961 24.4465 14.7436 24.5625 15.0816C24.6818 15.4197 24.8906 15.665 25.1889 15.8174C25.4872 15.9699 25.8601 16.0461 26.3075 16.0461C26.5959 16.0461 26.8627 16.0064 27.108 15.9268C27.3565 15.844 27.5769 15.723 27.7692 15.5639C27.9614 15.4015 28.1222 15.1993 28.2514 14.9574L29.6136 15.2109C29.4313 15.6252 29.1695 15.9881 28.8281 16.2997C28.4867 16.6079 28.084 16.8482 27.62 17.0206C27.1593 17.1896 26.6489 17.2741 26.0888 17.2741ZM41.0893 6.93818L39.399 17.12H37.987L34.0545 9.65267H33.965L32.7172 17.12H31.1809L32.8713 6.93818H34.2931L38.2306 14.4154H38.3251L39.568 6.93818H41.0893ZM51.5483 6.93818L49.858 17.12H48.446L44.5135 9.65267H44.424L43.1761 17.12H41.6399L43.3303 6.93818H44.7521L48.6896 14.4154H48.7841L50.027 6.93818H51.5483ZM51.9796 17.12L53.2523 9.48363H54.7388L53.4661 17.12H51.9796ZM54.3063 8.29045C54.0478 8.29045 53.829 8.20428 53.65 8.03193C53.4744 7.85626 53.3932 7.64746 53.4064 7.40551C53.4197 7.16024 53.5224 6.95143 53.7147 6.77909C53.9069 6.60342 54.1306 6.51559 54.3858 6.51559C54.6444 6.51559 54.8614 6.60342 55.0371 6.77909C55.2128 6.95143 55.2956 7.16024 55.2857 7.40551C55.2724 7.64746 55.1697 7.85626 54.9774 8.03193C54.7885 8.20428 54.5648 8.29045 54.3063 8.29045ZM55.5852 17.12L57.2756 6.93818H58.8118L58.0114 11.8004H58.1357L63.2067 6.93818H65.1406L60.2834 11.522L63.4652 17.12H61.6158L59.0902 12.571L57.6584 13.9581L57.1214 17.12H55.5852Z" fill="url(#paint0_linear_1_5)"/>
</g>
<path d="M10.6932 17H6.14773L8.07955 5.36364H12.4432C13.6402 5.36364 14.6402 5.60417 15.4432 6.08523C16.2462 6.56629 16.8163 7.25379 17.1534 8.14773C17.4905 9.04167 17.5568 10.1061 17.3523 11.3409C17.1553 12.5303 16.7557 13.5473 16.1534 14.392C15.5549 15.2367 14.7898 15.8826 13.858 16.3295C12.9299 16.7765 11.875 17 10.6932 17ZM9.75 14.3182H10.8977C11.4735 14.3182 11.9867 14.2178 12.4375 14.017C12.892 13.8125 13.2708 13.4716 13.5739 12.9943C13.8807 12.5133 14.1023 11.8561 14.2386 11.0227C14.3674 10.2348 14.3636 9.62689 14.2273 9.19886C14.0909 8.76705 13.8314 8.4678 13.4489 8.30114C13.0663 8.13068 12.572 8.04545 11.9659 8.04545H10.7955L9.75 14.3182ZM9.70455 22.1136C8.48106 22.1136 7.34659 21.9261 6.30114 21.5511C5.25568 21.1761 4.32765 20.6477 3.51705 19.9659C2.70644 19.2841 2.03788 18.4792 1.51136 17.5511C0.984848 16.6231 0.626894 15.6042 0.4375 14.4943C0.248106 13.3807 0.253788 12.2083 0.454545 10.9773C0.651515 9.79167 1.01894 8.66288 1.55682 7.59091C2.09848 6.51894 2.77273 5.53598 3.57955 4.64205C4.38636 3.74811 5.29167 2.97348 6.29545 2.31818C7.30303 1.65909 8.375 1.14962 9.51136 0.789772C10.6477 0.429924 11.8106 0.25 13 0.25C14.2235 0.25 15.358 0.4375 16.4034 0.8125C17.4527 1.1875 18.3826 1.71591 19.1932 2.39773C20.0076 3.07955 20.6761 3.88447 21.1989 4.8125C21.7254 5.74053 22.0833 6.76136 22.2727 7.875C22.4621 8.98485 22.4545 10.1553 22.25 11.3864C22.053 12.572 21.6856 13.7008 21.1477 14.7727C20.6098 15.8447 19.9375 16.8277 19.1307 17.7216C18.3239 18.6155 17.4167 19.3902 16.4091 20.0455C15.4053 20.7045 14.3352 21.214 13.1989 21.5739C12.0625 21.9337 10.8977 22.1136 9.70455 22.1136ZM9.70455 20.2955C10.7197 20.2955 11.7121 20.1402 12.6818 19.8295C13.6553 19.5189 14.5739 19.0795 15.4375 18.5114C16.3011 17.947 17.0795 17.2822 17.7727 16.517C18.4697 15.7481 19.0492 14.9053 19.5114 13.9886C19.9735 13.0682 20.2879 12.1023 20.4545 11.0909C20.6212 10.0833 20.6307 9.12689 20.483 8.22159C20.339 7.31629 20.0568 6.48864 19.6364 5.73864C19.2159 4.98864 18.678 4.33901 18.0227 3.78977C17.3712 3.24053 16.6212 2.81629 15.7727 2.51705C14.9242 2.2178 14 2.06818 13 2.06818C11.9886 2.06818 10.9962 2.22348 10.0227 2.53409C9.05303 2.8447 8.13636 3.28409 7.27273 3.85227C6.40909 4.41667 5.63068 5.08333 4.9375 5.85227C4.24432 6.61742 3.66477 7.46023 3.19886 8.38068C2.73295 9.29735 2.41667 10.2614 2.25 11.2727C2.08333 12.2803 2.07386 13.2367 2.22159 14.142C2.37311 15.0473 2.65909 15.875 3.07955 16.625C3.5 17.375 4.03598 18.0246 4.6875 18.5739C5.33902 19.1231 6.08902 19.5473 6.9375 19.8466C7.78599 20.1458 8.70833 20.2955 9.70455 20.2955Z" fill="url(#paint1_linear_1_5)"/>
<defs>
<filter id="filter0_b_1_5" x="18.9119" y="2.51559" width="50.2287" height="18.7585" filterUnits="userSpaceOnUse" color-interpolation-filters="sRGB">
<feFlood flood-opacity="0" result="BackgroundImageFix"/>
<feGaussianBlur in="BackgroundImageFix" stdDeviation="2"/>
<feComposite in2="SourceAlpha" operator="in" result="effect1_backgroundBlur_1_5"/>
<feBlend mode="normal" in="SourceGraphic" in2="effect1_backgroundBlur_1_5" result="shape"/>
</filter>
<linearGradient id="paint0_linear_1_5" x1="44.2727" y1="3.12" x2="44.2727" y2="18.72" gradientUnits="userSpaceOnUse">
<stop offset="0.0833333" stop-color="#3840FF"/>
<stop offset="0.333333" stop-color="#231FEB" stop-opacity="0.557292"/>
<stop offset="0.666667" stop-color="#062634" stop-opacity="0.463542"/>
<stop offset="0.921875" stop-color="#00FFD1" stop-opacity="0"/>
</linearGradient>
<linearGradient id="paint1_linear_1_5" x1="14" y1="2" x2="14" y2="21" gradientUnits="userSpaceOnUse">
<stop offset="0.0833333" stop-color="#3840FF"/>
<stop offset="0.333333" stop-color="#231FEB" stop-opacity="0.557292"/>
<stop offset="0.666667" stop-color="#062634" stop-opacity="0.463542"/>
<stop offset="0.921875" stop-color="#00FFD1" stop-opacity="0"/>
</linearGradient>
</defs>
</svg>
